<svg width="41" height="41" viewBox="0 0 41 41" fill="none" xmlns="http://www.w3.org/2000/svg">
<g id="account_circle">
<g id="Vector">
<path d="M20.5003 3.41663C11.0703 3.41663 3.41699 11.07 3.41699 20.5C3.41699 29.93 11.0703 37.5833 20.5003 37.5833C29.9303 37.5833 37.5837 29.93 37.5837 20.5C37.5837 11.07 29.9303 3.41663 20.5003 3.41663ZM12.5566 31.6041C14.7945 29.9983 17.5278 29.0416 20.5003 29.0416C23.4728 29.0416 26.2062 29.9983 28.4441 31.6041C26.2062 33.21 23.4728 34.1666 20.5003 34.1666C17.5278 34.1666 14.7945 33.21 12.5566 31.6041ZM30.9895 29.2466C28.1024 26.9916 24.4637 25.625 20.5003 25.625C16.537 25.625 12.8982 26.9916 10.0112 29.2466C8.02949 26.872 6.83366 23.8312 6.83366 20.5C6.83366 12.9491 12.9495 6.83329 20.5003 6.83329C28.0512 6.83329 34.167 12.9491 34.167 20.5C34.167 23.8312 32.9712 26.872 30.9895 29.2466Z" fill="black"/>
<path d="M20.5003 10.25C17.2032 10.25 14.5212 12.932 14.5212 16.2291C14.5212 19.5262 17.2032 22.2083 20.5003 22.2083C23.7974 22.2083 26.4795 19.5262 26.4795 16.2291C26.4795 12.932 23.7974 10.25 20.5003 10.25ZM20.5003 18.7916C19.0824 18.7916 17.9378 17.647 17.9378 16.2291C17.9378 14.8112 19.0824 13.6666 20.5003 13.6666C21.9182 13.6666 23.0628 14.8112 23.0628 16.2291C23.0628 17.647 21.9182 18.7916 20.5003 18.7916Z" fill="black"/>
</g>
</g>
</svg>
