<svg width="57" height="57" viewBox="0 0 57 57" fill="none" xmlns="http://www.w3.org/2000/svg">
<g id="noun-grade-sheet-3239955 1">
<g id="Group">
<path id="Vector" d="M9.2079 44.7231H35.5156C37.2694 44.7231 38.6944 43.5831 38.6944 42.2677V39.9H41.6541C43.4079 39.9 44.7233 38.76 44.7233 37.4446V35.077H47.6829C49.4368 35.077 50.7521 33.937 50.7521 32.6216V9.55849V9.4708C50.7521 9.20772 50.5329 8.94465 50.3137 8.76926C37.2694 -1.66612 41.7637 1.92926 40.7771 1.14003C40.7771 0.964645 40.4483 0.876953 40.2291 0.876953H21.3752C19.6214 0.876953 18.306 2.01695 18.306 3.33234V5.70003H15.3464C13.5925 5.70003 12.2771 6.84003 12.2771 8.15542V10.5231H9.2079C7.45406 10.5231 6.13867 11.6631 6.13867 12.9785V42.0923C6.13867 43.5831 7.56367 44.7231 9.2079 44.7231ZM47.1348 8.59388H42.3117C41.7637 8.59388 41.3252 8.24311 41.3252 7.80465V3.85849L47.1348 8.59388ZM21.3752 2.6308H39.0233V7.71695C39.0233 9.12003 40.4483 10.26 42.2021 10.26H48.5598V32.4462C48.5598 32.8846 48.1214 33.1477 47.6829 33.1477H21.3752C20.8271 33.1477 20.4983 32.797 20.4983 32.4462C20.4983 24.2908 20.4983 10.26 20.4983 3.33234C20.4983 2.98157 20.9367 2.6308 21.3752 2.6308ZM14.3598 8.24311C14.3598 7.80465 14.7983 7.54157 15.2367 7.54157H18.1964V32.4462C18.1964 33.8493 19.6214 34.9016 21.2656 34.9016H42.4214V37.2693C42.4214 37.7077 41.9829 37.9708 41.5444 37.9708H15.3464C14.7983 37.9708 14.4694 37.62 14.4694 37.2693V8.24311H14.3598ZM8.33098 13.1539C8.33098 12.7154 8.76944 12.4523 9.2079 12.4523H12.1675V37.4446C12.1675 38.8477 13.5925 39.9 15.2367 39.9H36.3925V42.2677C36.3925 42.7062 35.9541 42.9693 35.406 42.9693H9.09829C8.55021 42.9693 8.22136 42.6185 8.22136 42.2677V13.1539H8.33098Z" fill="black"/>
<path id="Vector_2" d="M23.5673 13.5923H45.4904C46.1481 13.5923 46.5866 13.2416 46.5866 12.7154C46.5866 12.1893 46.1481 11.8385 45.4904 11.8385H23.5673C22.9097 11.8385 22.4712 12.1893 22.4712 12.7154C22.4712 13.2416 23.0193 13.5923 23.5673 13.5923Z" fill="black"/>
<path id="Vector_3" d="M23.5673 18.9416H45.4904C46.1481 18.9416 46.5866 18.5908 46.5866 18.0647C46.5866 17.5385 46.1481 17.1877 45.4904 17.1877H23.5673C22.9097 17.1877 22.4712 17.5385 22.4712 18.0647C22.4712 18.5908 23.0193 18.9416 23.5673 18.9416Z" fill="black"/>
<path id="Vector_4" d="M23.5673 24.2908H45.4904C46.1481 24.2908 46.5866 23.9401 46.5866 23.4139C46.5866 22.8878 46.1481 22.537 45.4904 22.537H23.5673C22.9097 22.537 22.4712 22.8878 22.4712 23.4139C22.4712 23.9401 23.0193 24.2908 23.5673 24.2908Z" fill="black"/>
<path id="Vector_5" d="M23.5673 29.6401H45.4904C46.1481 29.6401 46.5866 29.2893 46.5866 28.7632C46.5866 28.237 46.1481 27.8862 45.4904 27.8862H23.5673C22.9097 27.8862 22.4712 28.237 22.4712 28.7632C22.4712 29.2893 23.0193 29.6401 23.5673 29.6401Z" fill="black"/>
<path id="Vector_6" d="M25.6503 8.5062H28.0619L28.8292 10.26H29.8157L27.4042 4.82312H26.308L24.1157 10.26H24.9926L25.6503 8.5062ZM26.5273 6.40158C26.6369 6.05081 26.7465 5.70004 26.8561 5.43697C26.9657 5.78774 27.0753 6.05081 27.185 6.40158L27.8426 7.98004H25.76L26.5273 6.40158Z" fill="black"/>
<path id="Vector_7" d="M32.6657 10.2601H33.3234V8.33083H35.6253V7.80467H33.3234V5.96313H32.6657V7.80467H30.3638V8.33083H32.6657V10.2601Z" fill="black"/>
</g>
</g>
</svg>
