<svg width="44" height="44" viewBox="0 0 44 44" fill="none" xmlns="http://www.w3.org/2000/svg">
<g id="Group">
<path id="Vector" d="M41 0H3C2.20462 0.000868196 1.44206 0.317218 0.879639 0.879639C0.317218 1.44206 0.000868196 2.20462 0 3V21C0.000868196 21.7954 0.317218 22.5579 0.879639 23.1204C1.44206 23.6828 2.20462 23.9991 3 24H5V27C5.00061 27.5302 5.21151 28.0386 5.58646 28.4135C5.9614 28.7885 6.46975 28.9994 7 29H15C15.5302 28.9994 16.0386 28.7885 16.4135 28.4135C16.7885 28.0386 16.9994 27.5302 17 27V24H41C41.7954 23.9991 42.5579 23.6828 43.1204 23.1204C43.6828 22.5579 43.9991 21.7954 44 21V3C43.9991 2.20462 43.6828 1.44206 43.1204 0.879639C42.5579 0.317218 41.7954 0.000868196 41 0ZM15 27H7V23.2148C6.97415 22.1257 7.38085 21.0707 8.13107 20.2808C8.8813 19.4908 9.91393 19.0303 11.0029 19C12.0615 19.0067 13.0747 19.4304 13.8229 20.1792C14.5711 20.9279 14.9941 21.9415 15 23V27ZM11 17C10.4067 17 9.82664 16.8241 9.33329 16.4944C8.83994 16.1648 8.45542 15.6962 8.22836 15.1481C8.0013 14.5999 7.94189 13.9967 8.05764 13.4147C8.1734 12.8328 8.45912 12.2982 8.87868 11.8787C9.29824 11.4591 9.83279 11.1734 10.4147 11.0576C10.9967 10.9419 11.5999 11.0013 12.1481 11.2284C12.6962 11.4554 13.1648 11.8399 13.4944 12.3333C13.8241 12.8266 14 13.4067 14 14C13.9991 14.7954 13.6828 15.5579 13.1204 16.1204C12.5579 16.6828 11.7954 16.9991 11 17ZM42 21C41.9997 21.2651 41.8942 21.5193 41.7067 21.7067C41.5193 21.8942 41.2651 21.9997 41 22H16.9076C16.8388 21.5951 16.7285 21.1984 16.5786 20.816L22.5546 16.832C22.6655 16.7598 22.7609 16.6664 22.8353 16.5572C22.9098 16.4479 22.9619 16.3249 22.9885 16.1954C23.0151 16.0659 23.0158 15.9324 22.9905 15.8026C22.9652 15.6728 22.9144 15.5493 22.841 15.4393C22.7677 15.3293 22.6732 15.2349 22.5632 15.1616C22.4531 15.0883 22.3296 15.0376 22.1998 15.0124C22.07 14.9871 21.9365 14.9879 21.807 15.0146C21.6775 15.0413 21.5545 15.0935 21.4453 15.168L15.5506 19.0978C15.1449 18.613 14.6596 18.2009 14.1155 17.8791C14.9272 17.2322 15.5175 16.3487 15.8044 15.3512C16.0913 14.3536 16.0606 13.2915 15.7166 12.3122C15.3726 11.3329 14.7323 10.485 13.8846 9.88599C13.0369 9.28702 12.0238 8.96674 10.9858 8.96958C9.94788 8.97242 8.93653 9.29824 8.09211 9.90185C7.2477 10.5055 6.61208 11.3569 6.27345 12.3381C5.93481 13.3193 5.90995 14.3815 6.20232 15.3774C6.49468 16.3734 7.08977 17.2536 7.90503 17.8961C7.18694 18.3558 6.56974 18.9566 6.09087 19.6621C5.61201 20.3675 5.28147 21.1629 5.11932 22H3C2.73489 21.9997 2.48073 21.8942 2.29327 21.7067C2.10581 21.5193 2.00034 21.2651 2 21V3C2.00034 2.73489 2.10581 2.48073 2.29327 2.29327C2.48073 2.10581 2.73489 2.00034 3 2H41C41.2651 2.00034 41.5193 2.10581 41.7067 2.29327C41.8942 2.48073 41.9997 2.73489 42 3V21Z" fill="black"/>
<path id="Vector_2" d="M26 4H24C23.7348 4 23.4804 4.10536 23.2929 4.29289C23.1054 4.48043 23 4.73478 23 5C23 5.26522 23.1054 5.51957 23.2929 5.70711C23.4804 5.89464 23.7348 6 24 6H26C26.2652 6 26.5196 5.89464 26.7071 5.70711C26.8946 5.51957 27 5.26522 27 5C27 4.73478 26.8946 4.48043 26.7071 4.29289C26.5196 4.10536 26.2652 4 26 4Z" fill="black"/>
<path id="Vector_3" d="M39 4H30C29.7348 4 29.4804 4.10536 29.2929 4.29289C29.1054 4.48043 29 4.73478 29 5C29 5.26522 29.1054 5.51957 29.2929 5.70711C29.4804 5.89464 29.7348 6 30 6H39C39.2652 6 39.5196 5.89464 39.7071 5.70711C39.8946 5.51957 40 5.26522 40 5C40 4.73478 39.8946 4.48043 39.7071 4.29289C39.5196 4.10536 39.2652 4 39 4Z" fill="black"/>
<path id="Vector_4" d="M26 9H24C23.7348 9 23.4804 9.10536 23.2929 9.29289C23.1054 9.48043 23 9.73478 23 10C23 10.2652 23.1054 10.5196 23.2929 10.7071C23.4804 10.8946 23.7348 11 24 11H26C26.2652 11 26.5196 10.8946 26.7071 10.7071C26.8946 10.5196 27 10.2652 27 10C27 9.73478 26.8946 9.48043 26.7071 9.29289C26.5196 9.10536 26.2652 9 26 9Z" fill="black"/>
<path id="Vector_5" d="M39 9H30C29.7348 9 29.4804 9.10536 29.2929 9.29289C29.1054 9.48043 29 9.73478 29 10C29 10.2652 29.1054 10.5196 29.2929 10.7071C29.4804 10.8946 29.7348 11 30 11H39C39.2652 11 39.5196 10.8946 39.7071 10.7071C39.8946 10.5196 40 10.2652 40 10C40 9.73478 39.8946 9.48043 39.7071 9.29289C39.5196 9.10536 39.2652 9 39 9Z" fill="black"/>
<path id="Vector_6" d="M39 14H30C29.7348 14 29.4804 14.1054 29.2929 14.2929C29.1054 14.4804 29 14.7348 29 15C29 15.2652 29.1054 15.5196 29.2929 15.7071C29.4804 15.8946 29.7348 16 30 16H39C39.2652 16 39.5196 15.8946 39.7071 15.7071C39.8946 15.5196 40 15.2652 40 15C40 14.7348 39.8946 14.4804 39.7071 14.2929C39.5196 14.1054 39.2652 14 39 14Z" fill="black"/>
<path id="Vector_7" d="M12.7934 37.855C13.3627 37.2996 13.7534 36.5871 13.9158 35.8085C14.0781 35.0299 14.0047 34.2206 13.7049 33.484C13.405 32.7473 12.8924 32.1168 12.2325 31.6729C11.5726 31.229 10.7953 30.9919 10 30.9919C9.20468 30.9919 8.42742 31.229 7.7675 31.6729C7.10757 32.1168 6.59496 32.7473 6.29513 33.484C5.9953 34.2206 5.92188 35.0299 6.08423 35.8085C6.24658 36.5871 6.63735 37.2996 7.2066 37.855C6.52749 38.3124 5.97111 38.9295 5.58636 39.6523C5.20161 40.375 5.00026 41.1812 5 42V43C4.99997 43.1313 5.02581 43.2614 5.07605 43.3827C5.12629 43.504 5.19995 43.6143 5.29282 43.7072C5.38568 43.8 5.49594 43.8737 5.61728 43.9239C5.73862 43.9742 5.86867 44 6 44H14C14.1313 44 14.2614 43.9742 14.3827 43.9239C14.5041 43.8737 14.6143 43.8 14.7072 43.7072C14.8 43.6143 14.8737 43.504 14.9239 43.3827C14.9742 43.2614 15 43.1313 15 43V42C14.9997 41.1812 14.7984 40.375 14.4136 39.6523C14.0289 38.9295 13.4725 38.3124 12.7934 37.855ZM8 35C8 34.6044 8.1173 34.2177 8.33706 33.8888C8.55682 33.5599 8.86918 33.3036 9.23463 33.1522C9.60009 33.0008 10.0022 32.9612 10.3902 33.0384C10.7781 33.1156 11.1345 33.306 11.4142 33.5858C11.6939 33.8655 11.8844 34.2218 11.9616 34.6098C12.0387 34.9977 11.9991 35.3999 11.8478 35.7653C11.6964 36.1308 11.44 36.4431 11.1111 36.6629C10.7822 36.8827 10.3956 37 10 37C9.46975 36.9994 8.9614 36.7885 8.58646 36.4135C8.21151 36.0386 8.00061 35.5302 8 35ZM7 42C7 41.2043 7.31607 40.4413 7.87868 39.8787C8.44129 39.316 9.20435 39 10 39C10.7956 39 11.5587 39.316 12.1213 39.8787C12.6839 40.4413 13 41.2043 13 42H7Z" fill="black"/>
<path id="Vector_8" d="M24.7934 37.855C25.3627 37.2996 25.7534 36.5871 25.9158 35.8085C26.0781 35.0299 26.0047 34.2206 25.7049 33.484C25.405 32.7473 24.8924 32.1168 24.2325 31.6729C23.5726 31.229 22.7953 30.9919 22 30.9919C21.2047 30.9919 20.4274 31.229 19.7675 31.6729C19.1076 32.1168 18.595 32.7473 18.2951 33.484C17.9953 34.2206 17.9219 35.0299 18.0842 35.8085C18.2466 36.5871 18.6373 37.2996 19.2066 37.855C18.5275 38.3124 17.9711 38.9295 17.5864 39.6523C17.2016 40.375 17.0003 41.1812 17 42V43C17 43.1313 17.0258 43.2614 17.0761 43.3827C17.1263 43.504 17.2 43.6143 17.2928 43.7072C17.3857 43.8 17.4959 43.8737 17.6173 43.9239C17.7386 43.9742 17.8687 44 18 44H26C26.1313 44 26.2614 43.9742 26.3827 43.9239C26.5041 43.8737 26.6143 43.8 26.7072 43.7072C26.8 43.6143 26.8737 43.504 26.9239 43.3827C26.9742 43.2614 27 43.1313 27 43V42C26.9997 41.1812 26.7984 40.375 26.4136 39.6523C26.0289 38.9295 25.4725 38.3124 24.7934 37.855ZM20 35C20 34.6044 20.1173 34.2177 20.3371 33.8888C20.5568 33.5599 20.8692 33.3036 21.2346 33.1522C21.6001 33.0008 22.0022 32.9612 22.3902 33.0384C22.7781 33.1156 23.1345 33.306 23.4142 33.5858C23.6939 33.8655 23.8844 34.2218 23.9616 34.6098C24.0387 34.9977 23.9991 35.3999 23.8478 35.7653C23.6964 36.1308 23.44 36.4431 23.1111 36.6629C22.7822 36.8827 22.3956 37 22 37C21.4698 36.9994 20.9614 36.7885 20.5865 36.4135C20.2115 36.0386 20.0006 35.5302 20 35ZM19 42C19 41.2043 19.3161 40.4413 19.8787 39.8787C20.4413 39.316 21.2044 39 22 39C22.7956 39 23.5587 39.316 24.1213 39.8787C24.6839 40.4413 25 41.2043 25 42H19Z" fill="black"/>
<path id="Vector_9" d="M36.7934 37.855C37.3627 37.2996 37.7534 36.5871 37.9158 35.8085C38.0781 35.0299 38.0047 34.2206 37.7049 33.484C37.405 32.7473 36.8924 32.1168 36.2325 31.6729C35.5726 31.229 34.7953 30.9919 34 30.9919C33.2047 30.9919 32.4274 31.229 31.7675 31.6729C31.1076 32.1168 30.595 32.7473 30.2951 33.484C29.9953 34.2206 29.9219 35.0299 30.0842 35.8085C30.2466 36.5871 30.6373 37.2996 31.2066 37.855C30.5275 38.3124 29.9711 38.9295 29.5864 39.6523C29.2016 40.375 29.0003 41.1812 29 42V43C29 43.1313 29.0258 43.2614 29.0761 43.3827C29.1263 43.504 29.2 43.6143 29.2928 43.7072C29.3857 43.8 29.4959 43.8737 29.6173 43.9239C29.7386 43.9742 29.8687 44 30 44H38C38.1313 44 38.2614 43.9742 38.3827 43.9239C38.5041 43.8737 38.6143 43.8 38.7072 43.7072C38.8 43.6143 38.8737 43.504 38.924 43.3827C38.9742 43.2614 39 43.1313 39 43V42C38.9997 41.1812 38.7984 40.375 38.4136 39.6523C38.0289 38.9295 37.4725 38.3124 36.7934 37.855ZM32 35C32 34.6044 32.1173 34.2177 32.3371 33.8888C32.5568 33.5599 32.8692 33.3036 33.2346 33.1522C33.6001 33.0008 34.0022 32.9612 34.3902 33.0384C34.7781 33.1156 35.1345 33.306 35.4142 33.5858C35.6939 33.8655 35.8844 34.2218 35.9616 34.6098C36.0387 34.9977 35.9991 35.3999 35.8478 35.7653C35.6964 36.1308 35.44 36.4431 35.1111 36.6629C34.7822 36.8827 34.3956 37 34 37C33.4698 36.9994 32.9614 36.7885 32.5865 36.4135C32.2115 36.0386 32.0006 35.5302 32 35ZM31 42C31 41.2043 31.3161 40.4413 31.8787 39.8787C32.4413 39.316 33.2044 39 34 39C34.7956 39 35.5587 39.316 36.1213 39.8787C36.6839 40.4413 37 41.2043 37 42H31Z" fill="black"/>
</g>
</svg>
