<svg xmlns="http://www.w3.org/2000/svg" width="289" height="308" viewBox="0 0 289 308" fill="none">
<path d="M26.7801 268.48H20.2401V261.36H26.7801V254.24H33.3201V261.36H39.8601V268.48H33.3201V275.6H26.7801V268.48ZM252.835 253.065L248.225 258.12L252.868 263.14L248.225 268.16L252.835 273.215L257.479 268.16L262.22 273.215L266.864 268.16L262.22 263.14L266.864 258.12L262.22 253.065L257.609 258.12L252.835 253.065ZM226.25 58.44H173.93V65.56H226.25V58.44ZM167.39 58.44H160.85V65.56H167.39V58.44ZM173.93 79.8H226.25V72.68H173.93V79.8ZM160.85 79.8H167.39V72.68H160.85V79.8ZM173.93 94.04H226.25V86.92H173.93V94.04ZM160.85 94.04H167.39V86.92H160.85V94.04ZM173.93 108.28H226.25V101.16H173.93V108.28ZM160.85 108.28H167.39V101.16H160.85V108.28ZM82.3701 33.52C82.3701 29.9995 83.329 26.558 85.1256 23.6308C86.9222 20.7036 89.4757 18.4222 92.4632 17.0749C95.4508 15.7277 98.7383 15.3752 101.91 16.062C105.081 16.7488 107.995 18.4441 110.281 20.9335C112.568 23.4228 114.125 26.5945 114.756 30.0474C115.387 33.5002 115.063 37.0792 113.826 40.3317C112.588 43.5843 110.492 46.3642 107.804 48.3201C105.115 50.276 101.954 51.32 98.7201 51.32C94.3838 51.32 90.2251 49.4446 87.1589 46.1065C84.0927 42.7683 82.3701 38.2408 82.3701 33.52ZM88.9101 33.52C88.9101 35.6323 89.4855 37.6971 90.5634 39.4535C91.6413 41.2098 93.1735 42.5787 94.966 43.387C96.7585 44.1954 98.731 44.4069 100.634 43.9948C102.537 43.5827 104.285 42.5655 105.657 41.0719C107.029 39.5783 107.963 37.6753 108.342 35.6035C108.72 33.5318 108.526 31.3844 107.783 29.4329C107.041 27.4814 105.784 25.8134 104.17 24.6399C102.557 23.4663 100.66 22.84 98.7201 22.84C96.1183 22.84 93.6231 23.9652 91.7834 25.9681C89.9437 27.971 88.9101 30.6875 88.9101 33.52ZM82.3701 122.52H66.0201V90.48C66.0201 85.7591 67.7427 81.2316 70.8089 77.8935C73.8751 74.5553 78.0338 72.68 82.3701 72.68H154.31V65.56H82.3701C76.2993 65.56 70.4772 68.1855 66.1844 72.8589C61.8917 77.5323 59.4801 83.8708 59.4801 90.48V129.64H82.3701V122.52ZM95.4501 158.12V94.04H88.9101V158.12H95.4501ZM108.53 158.12V94.04H101.99V158.12H108.53ZM258.95 165.24H30.0501V172.36H258.95V165.24ZM82.3701 225.76C79.1364 225.76 75.9753 224.716 73.2866 222.76C70.5978 220.804 68.5022 218.024 67.2647 214.772C66.0272 211.519 65.7034 207.94 66.3343 204.487C66.9651 201.035 68.5223 197.863 70.8089 195.373C73.0955 192.884 76.0088 191.189 79.1804 190.502C82.352 189.815 85.6394 190.168 88.627 191.515C91.6146 192.862 94.1681 195.144 95.9647 198.071C97.7612 200.998 98.7201 204.439 98.7201 207.96C98.7201 212.681 96.9975 217.208 93.9313 220.546C90.8651 223.885 86.7064 225.76 82.3701 225.76ZM82.3701 218.64C84.3104 218.64 86.207 218.014 87.8203 216.84C89.4335 215.667 90.6909 213.999 91.4334 212.047C92.1759 210.096 92.3701 207.948 91.9916 205.876C91.6131 203.805 90.6788 201.902 89.3068 200.408C87.9349 198.914 86.1869 197.897 84.284 197.485C82.381 197.073 80.4085 197.285 78.616 198.093C76.8235 198.901 75.2913 200.27 74.2134 202.026C73.1355 203.783 72.5601 205.848 72.5601 207.96C72.5601 210.792 73.5937 213.509 75.4334 215.512C77.2731 217.515 79.7683 218.64 82.3701 218.64ZM110.165 279.16V254.24C110.165 247.631 107.754 241.292 103.461 236.619C99.1681 231.945 93.3459 229.32 87.2751 229.32H77.4651C71.3943 229.32 65.5722 231.945 61.2794 236.619C56.9867 241.292 54.5751 247.631 54.5751 254.24V279.16H61.1151V254.24C61.1151 249.519 62.8377 244.992 65.9039 241.653C68.9701 238.315 73.1288 236.44 77.4651 236.44H87.2751C91.6114 236.44 95.7701 238.315 98.8363 241.653C101.903 244.992 103.625 249.519 103.625 254.24V279.16H110.165ZM144.5 225.76C141.266 225.76 138.105 224.716 135.417 222.76C132.728 220.804 130.632 218.024 129.395 214.772C128.157 211.519 127.833 207.94 128.464 204.487C129.095 201.035 130.652 197.863 132.939 195.373C135.226 192.884 138.139 191.189 141.31 190.502C144.482 189.815 147.769 190.168 150.757 191.515C153.745 192.862 156.298 195.144 158.095 198.071C159.891 200.998 160.85 204.439 160.85 207.96C160.85 212.681 159.128 217.208 156.061 220.546C152.995 223.885 148.836 225.76 144.5 225.76ZM144.5 218.64C146.44 218.64 148.337 218.014 149.95 216.84C151.564 215.667 152.821 213.999 153.563 212.047C154.306 210.096 154.5 207.948 154.122 205.876C153.743 203.805 152.809 201.902 151.437 200.408C150.065 198.914 148.317 197.897 146.414 197.485C144.511 197.073 142.539 197.285 140.746 198.093C138.953 198.901 137.421 200.27 136.343 202.026C135.265 203.783 134.69 205.848 134.69 207.96C134.69 210.792 135.724 213.509 137.563 215.512C139.403 217.515 141.898 218.64 144.5 218.64ZM172.295 279.16V254.24C172.295 247.631 169.884 241.292 165.591 236.619C161.298 231.945 155.476 229.32 149.405 229.32H139.595C133.524 229.32 127.702 231.945 123.409 236.619C119.117 241.292 116.705 247.631 116.705 254.24V279.16H123.245V254.24C123.245 249.519 124.968 244.992 128.034 241.653C131.1 238.315 135.259 236.44 139.595 236.44H149.405C153.741 236.44 157.9 238.315 160.966 241.653C164.033 244.992 165.755 249.519 165.755 254.24V279.16H172.295ZM206.63 225.76C203.396 225.76 200.235 224.716 197.547 222.76C194.858 220.804 192.762 218.024 191.525 214.772C190.287 211.519 189.963 207.94 190.594 204.487C191.225 201.035 192.782 197.863 195.069 195.373C197.356 192.884 200.269 191.189 203.44 190.502C206.612 189.815 209.899 190.168 212.887 191.515C215.875 192.862 218.428 195.144 220.225 198.071C222.021 200.998 222.98 204.439 222.98 207.96C222.98 212.681 221.258 217.208 218.191 220.546C215.125 223.885 210.966 225.76 206.63 225.76ZM206.63 218.64C208.57 218.64 210.467 218.014 212.08 216.84C213.694 215.667 214.951 213.999 215.693 212.047C216.436 210.096 216.63 207.948 216.252 205.876C215.873 203.805 214.939 201.902 213.567 200.408C212.195 198.914 210.447 197.897 208.544 197.485C206.641 197.073 204.669 197.285 202.876 198.093C201.083 198.901 199.551 200.27 198.473 202.026C197.395 203.783 196.82 205.848 196.82 207.96C196.82 210.792 197.854 213.509 199.693 215.512C201.533 217.515 204.028 218.64 206.63 218.64ZM234.425 279.16V254.24C234.425 247.631 232.014 241.292 227.721 236.619C223.428 231.945 217.606 229.32 211.535 229.32H201.725C195.654 229.32 189.832 231.945 185.539 236.619C181.247 241.292 178.835 247.631 178.835 254.24V279.16H185.375V254.24C185.375 249.519 187.098 244.992 190.164 241.653C193.23 238.315 197.389 236.44 201.725 236.44H211.535C215.871 236.44 220.03 238.315 223.096 241.653C226.163 244.992 227.885 249.519 227.885 254.24V279.16H234.425ZM42.5415 20.4548L47.1522 15.3996L51.7956 20.4548L56.4063 15.3996L51.7956 10.38L56.4063 5.36038L51.7956 0.305176L47.1522 5.36038L42.5415 0.305176L37.8981 5.36038L42.5415 10.38L37.8981 15.3996L42.5415 20.4548ZM236.06 22.84H242.6V15.72H249.14V8.59998H242.6V1.47998H236.06V8.59998H229.52V15.72H236.06V22.84ZM245.87 86.92H239.33V94.04H245.87V86.92ZM147.77 44.2H239.33V72.68H245.87V37.08H141.23V58.44H147.77V44.2ZM141.23 79.8V129.64H245.87V101.16H239.33V122.52H147.77V79.8H141.23ZM200.09 293.4V286.28H193.55V293.4H200.09ZM187.01 286.28H0.620117V293.4H187.01V286.28ZM213.17 286.28V293.4H288.38V286.28H213.17ZM88.9101 307.64H95.4501V300.52H88.9101V307.64ZM101.99 307.64H288.38V300.52H101.99V307.64ZM0.620117 307.64H75.8301V300.52H0.620117V307.64Z" fill="black"/>
</svg>