<svg xmlns="http://www.w3.org/2000/svg" width="20" height="20" viewBox="0 0 20 20" fill="none">
  <path d="M17.9875 13.2C15.8875 12.125 13.1625 11.25 10 11.25C6.8375 11.25 4.1125 12.125 2.0125 13.2C0.7625 13.8375 0 15.125 0 16.525V20H20V16.525C20 15.125 19.2375 13.8375 17.9875 13.2ZM17.5 17.5H2.5V16.525C2.5 16.05 2.75 15.625 3.15 15.425C4.6375 14.6625 7.0375 13.75 10 13.75C12.9625 13.75 15.3625 14.6625 16.85 15.425C17.25 15.625 17.5 16.05 17.5 16.525V17.5Z" fill="black"/>
  <path d="M7.225 10H12.775C14.2875 10 15.45 8.675 15.25 7.175L14.85 4.1125C14.4625 1.7375 12.4 0 10 0C7.6 0 5.5375 1.7375 5.15 4.1125L4.75 7.175C4.55 8.675 5.7125 10 7.225 10ZM7.625 4.4875C7.825 3.3375 8.825 2.5 10 2.5C11.175 2.5 12.175 3.3375 12.375 4.4875L12.775 7.5H7.225L7.625 4.4875Z" fill="black"/>
</svg>